<svg width="40" height="40" viewBox="0 0 40 40" fill="none" xmlns="http://www.w3.org/2000/svg">
  <!-- Coffee bean shape -->
  <path d="M20 4C11.2 4 4 11.2 4 20c0 8.8 7.2 16 16 16s16-7.2 16-16S28.8 4 20 4zm0 28c-6.6 0-12-5.4-12-12s5.4-12 12-12 12 5.4 12 12-5.4 12-12 12z" fill="currentColor"/>
  
  <!-- Inner detail -->
  <path d="M20 10c-5.5 0-10 4.5-10 10s4.5 10 10 10 10-4.5 10-10-4.5-10-10-10zm0 16c-3.3 0-6-2.7-6-6s2.7-6 6-6 6 2.7 6 6-2.7 6-6 6z" fill="currentColor" opacity="0.7"/>
  
  <!-- Roasting indicator -->
  <circle cx="20" cy="20" r="3" fill="currentColor"/>
</svg>