<?xml version="1.0" encoding="UTF-8"?>
<svg version="1.1" xmlns="http://www.w3.org/2000/svg" width="381" height="370">
<path d="M0 0 C0 3 0 3 -1.5625 6.1875 C-3.74843307 11.18690674 -2.93229436 15.32531085 -1.1953125 20.30859375 C8.50156896 42.42739271 34.42713553 56.27464744 55.19238281 66.12988281 C57.88612887 67.42654826 60.53205148 68.81447281 63.1875 70.1875 C68.27071914 72.73254882 73.45486077 74.80287686 78.78125 76.78125 C81.89536246 77.96037996 84.9430819 79.2431985 88 80.5625 C93.17370207 82.74558328 98.40568637 84.44575015 103.796875 86.0078125 C106.1122025 86.72499931 108.39835505 87.53874725 110.66015625 88.41015625 C147.46673854 102.3992772 214.34066119 119.21421598 252.8125 102.06640625 C253.8953125 101.53853516 253.8953125 101.53853516 255 101 C255.680625 100.67902344 256.36125 100.35804688 257.0625 100.02734375 C261.0094851 97.996291 263.10453302 96.01393008 265 92 C265.6796875 93.72265625 265.6796875 93.72265625 266 96 C262.53147567 102.77938847 257.02657507 107.34050022 250 110 C240.16237638 113.01964675 230.27034729 115.15206444 219.953125 115.16796875 C218.79801422 115.17296135 218.79801422 115.17296135 217.61956787 115.17805481 C215.98906038 115.18310196 214.35854263 115.18546382 212.72802734 115.18530273 C210.29896633 115.18745658 207.87038508 115.205544 205.44140625 115.22460938 C197.30093963 115.25451778 189.26936141 114.98657743 181.171875 114.11328125 C180.43809631 114.03554977 179.70431763 113.9578183 178.94830322 113.87773132 C174.75011641 113.37531567 170.95903461 112.47978432 167 111 C166.92652344 112.48886719 166.92652344 112.48886719 166.8515625 114.0078125 C165.87291337 132.45580589 164.44841113 149.05349957 151 163 C148.46534021 165.24443157 145.8473718 167.17284036 143 169 C142.42507812 169.37769531 141.85015625 169.75539063 141.2578125 170.14453125 C126.84624011 179.01063684 107.1206499 179.88873747 90.875 176.875 C76.70816455 173.45214043 64.91647081 165.78481716 57.1796875 153.26171875 C53.08327467 145.40800011 51.85447397 137.42575883 51.9375 128.625 C51.94652344 127.37976563 51.95554688 126.13453125 51.96484375 124.8515625 C51.97644531 123.91054688 51.98804688 122.96953125 52 122 C56.33584159 121.1888339 60.5225098 120.82009925 64.9296875 120.68359375 C66.21875 120.64169922 67.5078125 120.59980469 68.8359375 120.55664062 C70.18228909 120.51683972 71.52864329 120.47712727 72.875 120.4375 C74.24480333 120.39424817 75.61459521 120.35063188 76.984375 120.30664062 C80.32282157 120.20084478 83.661339 120.09875628 87 120 C87.114646 120.95624268 87.22929199 121.91248535 87.34741211 122.89770508 C87.59116577 124.78332153 87.59116577 124.78332153 87.83984375 126.70703125 C88.07368774 128.57452026 88.07368774 128.57452026 88.31225586 130.47973633 C89.28356914 135.45146733 91.0678499 138.79882652 95 142 C101.24221621 145.43791231 108.55379809 146.28591134 115.390625 144.30859375 C120.7444848 142.19009625 123.83122541 139.80117363 127 135 C128.56939263 130.94180811 129.32030813 127.27573025 129.6328125 122.9453125 C129.71660156 121.83671875 129.80039063 120.728125 129.88671875 119.5859375 C129.96535156 118.44382812 130.04398438 117.30171875 130.125 116.125 C130.25455078 114.37703125 130.25455078 114.37703125 130.38671875 112.59375 C130.59800898 109.72959356 130.80220849 106.86511498 131 104 C130.42822021 103.90058105 129.85644043 103.80116211 129.26733398 103.69873047 C122.02510588 102.35398153 115.08607446 100.32574727 108.0625 98.125 C106.95970703 97.78597656 105.85691406 97.44695312 104.72070312 97.09765625 C97.73442258 94.92964235 90.85049571 92.56307017 84 90 C83.24549561 89.72236816 82.49099121 89.44473633 81.71362305 89.15869141 C71.51412571 85.38928693 61.73458854 81.14296211 52.10546875 76.09326172 C49.87382398 74.93448328 47.62612271 73.81183445 45.375 72.69140625 C24.64703694 62.25557004 1.51902814 48.22028951 -8 26 C-9.01739411 18.09915569 -8.87478511 10.55460971 -4 4 C-1.75 1.5 -1.75 1.5 0 0 Z " fill="#146DB6" transform="translate(86,158)"/>
<path d="M0 0 C0 0.66 0 1.32 0 2 C-1.61056274 1.98428955 -1.61056274 1.98428955 -3.25366211 1.96826172 C-7.27364713 1.93179991 -11.29361781 1.90900513 -15.3137207 1.89013672 C-17.04681871 1.88013839 -18.7799001 1.86653527 -20.51293945 1.84912109 C-23.01778284 1.82459916 -25.52240136 1.81345504 -28.02734375 1.8046875 C-28.79022202 1.79436493 -29.55310028 1.78404236 -30.33909607 1.77340698 C-37.71357085 1.77190175 -44.87317457 2.62369612 -51 7 C-51.7425 7.515625 -52.485 8.03125 -53.25 8.5625 C-55.11917664 9.89895055 -55.11917664 9.89895055 -56 12 C-56.35859296 19.3745422 -53.66401462 24.47630472 -49 30 C-33.80218662 46.16324825 -10.46617238 56.36559548 10 64 C11.70996119 64.70439449 13.41846286 65.41235009 15.125 66.125 C19.81852692 68.00086684 24.60087481 69.48151908 29.44140625 70.9296875 C31.9573063 71.6863907 34.46247083 72.459041 36.96484375 73.2578125 C55.98820564 79.3294374 75.30702907 83.6565689 95.22290039 85.40454102 C100.90981237 85.90981237 100.90981237 85.90981237 102 87 C104.59439261 87.10256901 107.15559914 87.14168425 109.75 87.125 C110.51844238 87.12016602 111.28688477 87.11533203 112.07861328 87.11035156 C129.70519598 87.33570677 129.70519598 87.33570677 145.26953125 80.12109375 C147.7141339 77.12466206 147.69294412 75.25426556 147.5078125 71.49609375 C144.90016277 58.67849238 132.71687128 50.47256846 122.5625 43.6875 C121.716875 43.130625 120.87125 42.57375 120 42 C120.66 41.67 121.32 41.34 122 41 C124.51055978 42.33488301 126.86034905 43.72085732 129.25 45.25 C129.96003174 45.69947998 130.67006348 46.14895996 131.40161133 46.61206055 C144.92559668 55.32785188 164.10892086 67.88644478 169 84 C169.88897559 88.51715241 170.02725578 92.19376778 167.70703125 96.2734375 C160.68508658 104.91830302 151.45690843 107.43387309 140.70947266 108.75683594 C122.04860929 110.43157192 103.43896127 108.93153265 85 106 C84.07622559 105.86078125 83.15245117 105.7215625 82.20068359 105.578125 C70.10607858 103.74451582 58.20292874 101.22652819 46.3125 98.375 C45.05219971 98.07368164 43.79189941 97.77236328 42.4934082 97.46191406 C33.23343752 95.18826903 33.23343752 95.18826903 29 93 C27.09461286 92.50722746 25.18807085 92.01802615 23.2734375 91.5625 C-14.62476799 82.18562442 -66.03634135 61.99569123 -88.6953125 28.2890625 C-91.4586593 23.44079536 -92.6668753 19.62080606 -92 14 C-89.69807965 8.13345541 -86.17458446 4.8443045 -80.58984375 2.09375 C-55.75708621 -8.39368908 -25.86785346 -5.31806142 0 0 Z " fill="#BDBDC1" transform="translate(180,152)"/>
<path d="M0 0 C0.90177979 0.009104 1.80355957 0.01820801 2.73266602 0.02758789 C13.25743597 0.21925037 23.57162093 1.53411889 33.9375 3.3125 C33.9375 3.9725 33.9375 4.6325 33.9375 5.3125 C32.65875 5.1475 31.38 4.9825 30.0625 4.8125 C24.95247544 4.3007665 19.88057523 4.20008779 14.75 4.1875 C13.99025879 4.18298828 13.23051758 4.17847656 12.44775391 4.17382812 C4.74635387 4.19396689 -1.78742749 4.54344489 -8.0625 9.3125 C-9.39722566 13.31667699 -9.46001099 15.35796724 -7.8359375 19.2578125 C-2.76894439 27.98554072 6.1349135 32.97798499 14.9375 37.3125 C15.86175781 37.80363281 16.78601563 38.29476562 17.73828125 38.80078125 C35.07877474 47.88166214 58.09487807 57.3125 77.9375 57.3125 C77.13082886 57.11672363 77.13082886 57.11672363 76.30786133 56.91699219 C65.7405908 54.34197395 55.29584957 51.64196951 44.9375 48.3125 C44.9375 42.0425 44.9375 35.7725 44.9375 29.3125 C56.8175 29.3125 68.6975 29.3125 80.9375 29.3125 C80.9375 38.5525 80.9375 47.7925 80.9375 57.3125 C87.23503262 58.88688316 91.64382215 59.67018235 97.875 59.625 C98.66406738 59.62081055 99.45313477 59.61662109 100.26611328 59.61230469 C107.21039554 59.47740852 112.75049443 58.56672345 118.5 54.5 C120.48041916 51.48631867 120.50562863 49.86330396 119.9375 46.3125 C118.06571884 43.12961646 118.06571884 43.12961646 115.9375 40.3125 C115.6075 39.3225 115.2775 38.3325 114.9375 37.3125 C113.61411368 36.62629969 112.27800052 35.96463539 110.9375 35.3125 C108.87027924 33.71533189 106.91592146 32.02113672 104.9375 30.3125 C105.2675 29.6525 105.5975 28.9925 105.9375 28.3125 C130.49958696 46.16432609 130.49958696 46.16432609 132.5 57.5 C131.70468388 61.4765806 130.0986095 62.82396699 126.9375 65.3125 C105.2220859 76.78479424 72.10432287 67.44599383 49.9375 61.3125 C49.18984375 61.10866699 48.4421875 60.90483398 47.671875 60.69482422 C24.34162067 54.28831156 -4.43142447 44.95789834 -21.0625 26.3125 C-21.0625 25.6525 -21.0625 24.9925 -21.0625 24.3125 C-21.7225 24.3125 -22.3825 24.3125 -23.0625 24.3125 C-25.84536067 20.34903177 -27.45933041 17.6051593 -27.1875 12.6875 C-26.58102187 9.22527533 -26.00551867 8.24529125 -23.625 5.4375 C-16.66757166 0.6145496 -8.22027123 -0.16890435 0 0 Z " fill="#BCBCC1" transform="translate(176.0625,159.6875)"/>
<path d="M0 0 C0 3 0 3 -1.5625 6.1875 C-3.74843307 11.18690674 -2.93229436 15.32531085 -1.1953125 20.30859375 C8.50156896 42.42739271 34.42713553 56.27464744 55.19238281 66.12988281 C57.88612887 67.42654826 60.53205148 68.81447281 63.1875 70.1875 C68.27071914 72.73254882 73.45486077 74.80287686 78.78125 76.78125 C81.89536246 77.96037996 84.9430819 79.2431985 88 80.5625 C93.17370207 82.74558328 98.40568637 84.44575015 103.796875 86.0078125 C106.1122025 86.72499931 108.39835505 87.53874725 110.66015625 88.41015625 C147.46673854 102.3992772 214.34066119 119.21421598 252.8125 102.06640625 C253.8953125 101.53853516 253.8953125 101.53853516 255 101 C255.680625 100.67902344 256.36125 100.35804688 257.0625 100.02734375 C261.0094851 97.996291 263.10453302 96.01393008 265 92 C265.6796875 93.72265625 265.6796875 93.72265625 266 96 C262.53147567 102.77938847 257.02657507 107.34050022 250 110 C240.16237638 113.01964675 230.27034729 115.15206444 219.953125 115.16796875 C218.79801422 115.17296135 218.79801422 115.17296135 217.61956787 115.17805481 C215.98906038 115.18310196 214.35854263 115.18546382 212.72802734 115.18530273 C210.29896633 115.18745658 207.87038508 115.205544 205.44140625 115.22460938 C197.30093963 115.25451778 189.26936141 114.98657743 181.171875 114.11328125 C180.43809631 114.03554977 179.70431763 113.9578183 178.94830322 113.87773132 C174.75011641 113.37531567 170.95903461 112.47978432 167 111 C167 112.65 167 114.3 167 116 C166.34 116 165.68 116 165 116 C164.67 116.66 164.34 117.32 164 118 C163.67 117.34 163.34 116.68 163 116 C161.80503906 116.02320313 160.61007813 116.04640625 159.37890625 116.0703125 C143.69869427 116.2810946 143.69869427 116.2810946 136 114 C136 113.34 136 112.68 136 112 C133.525 112.495 133.525 112.495 131 113 C131 110.03 131 107.06 131 104 C129.61683594 103.74992187 128.23367187 103.49984375 126.80859375 103.2421875 C120.42392428 101.96323065 114.27093387 100.07033338 108.0625 98.125 C106.95970703 97.78597656 105.85691406 97.44695312 104.72070312 97.09765625 C97.73442258 94.92964235 90.85049571 92.56307017 84 90 C83.24549561 89.72236816 82.49099121 89.44473633 81.71362305 89.15869141 C71.51412571 85.38928693 61.73458854 81.14296211 52.10546875 76.09326172 C49.87382398 74.93448328 47.62612271 73.81183445 45.375 72.69140625 C24.64703694 62.25557004 1.51902814 48.22028951 -8 26 C-9.01739411 18.09915569 -8.87478511 10.55460971 -4 4 C-1.75 1.5 -1.75 1.5 0 0 Z " fill="#225C8B" transform="translate(86,158)"/>
<path d="M0 0 C3.26945994 1.63472997 4.77611698 2.52845695 7.20800781 4.98095703 C7.80832825 5.58142853 8.40864868 6.18190002 9.02716064 6.80056763 C9.66272888 7.44645844 10.29829712 8.09234924 10.953125 8.7578125 C11.61334656 9.42086395 12.27356812 10.08391541 12.95379639 10.76705933 C15.05727824 12.88171832 17.15369142 15.00323212 19.25 17.125 C20.67662261 18.56165557 22.10370072 19.99785898 23.53125 21.43359375 C27.02613661 24.95050804 30.51470062 28.47358547 34 32 C33.67 32.99 33.34 33.98 33 35 C28.38 35 23.76 35 19 35 C19 42.26 19 49.52 19 57 C7.12 57 -4.76 57 -17 57 C-17 39 -17 39 -16 35 C-16.98742187 35.03480469 -17.97484375 35.06960937 -18.9921875 35.10546875 C-20.27351562 35.13253906 -21.55484375 35.15960938 -22.875 35.1875 C-24.78925781 35.23970703 -24.78925781 35.23970703 -26.7421875 35.29296875 C-27.81726563 35.19628906 -28.89234375 35.09960938 -30 35 C-30.66 34.01 -31.32 33.02 -32 32 C-21.44 21.44 -10.88 10.88 0 0 Z " fill="#1971B9" transform="translate(241,79)"/>
<path d="M0 0 C11.88 0 23.76 0 36 0 C36.020625 2.97 36.04125 5.94 36.0625 9 C36.071604 9.91910156 36.08070801 10.83820313 36.09008789 11.78515625 C36.10725871 16.95191214 35.75150585 21.88739325 35 27 C28.42770704 27.42581053 22.68767762 25.84736762 16.375 24.125 C15.35148438 23.85558594 14.32796875 23.58617187 13.2734375 23.30859375 C8.68470524 22.08373683 4.42693653 20.77077461 0 19 C0 12.73 0 6.46 0 0 Z " fill="#1D73B8" transform="translate(221,189)"/>
<path d="M0 0 C1.32 0 2.64 0 4 0 C4.09796875 1.31613281 4.1959375 2.63226563 4.296875 3.98828125 C5.60222705 19.95187059 8.50128545 34.28499975 20.6875 45.8125 C34.49171611 56.8032854 53.62661707 60.92902218 71 59 C80.96227032 57.56251978 90.33007396 55.27581706 99 50 C100.03125 49.401875 101.0625 48.80375 102.125 48.1875 C102.74375 47.795625 103.3625 47.40375 104 47 C102.6072244 51.17832679 99.68649381 52.3737663 96.0625 54.5 C95.38026367 54.9029126 94.69802734 55.3058252 93.99511719 55.72094727 C88.81071459 58.70032729 83.87850755 60.79315408 78 62 C77.20078125 62.20109375 76.4015625 62.4021875 75.578125 62.609375 C58.52771699 66.43279983 38.65200476 64.90069465 23.49609375 55.765625 C11.10483724 47.00060474 3.27145978 36.83110031 0.36328125 21.68359375 C-0.07005184 17.28968941 -0.10870793 12.97358024 -0.0625 8.5625 C-0.05798828 7.73556641 -0.05347656 6.90863281 -0.04882812 6.05664062 C-0.03715811 4.03772854 -0.01922718 2.01885426 0 0 Z " fill="#89B0CB" transform="translate(130,280)"/>
<path d="M0 0 C5.28 0 10.56 0 16 0 C16 5.61 16 11.22 16 17 C10.39 17 4.78 17 -1 17 C-1.09063407 11.19941973 -0.83485204 5.73960775 0 0 Z " fill="#1C74BA" transform="translate(223,170)"/>
<path d="M0 0 C0.99 0.495 0.99 0.495 2 1 C-5.98995655 11.72336274 -17.0212868 14.51795001 -29.71582031 16.67041016 C-43.64136593 18.67976101 -59.54851919 16.85420631 -72 10 C-71.34 9.67 -70.68 9.34 -70 9 C-70 8.34 -70 7.68 -70 7 C-68.35451172 7.41572266 -68.35451172 7.41572266 -66.67578125 7.83984375 C-65.22137007 8.20579237 -63.7669421 8.57167427 -62.3125 8.9375 C-61.59126953 9.11990234 -60.87003906 9.30230469 -60.12695312 9.49023438 C-42.39335094 13.94387876 -23.644698 13.08128786 -7 5 C-4.47671151 3.46517328 -2.29616656 1.86897278 0 0 Z " fill="#E8F0F5" transform="translate(233,323)"/>
<path d="M0 0 C5.28 0 10.56 0 16 0 C15.67 5.61 15.34 11.22 15 17 C9.72 17 4.44 17 -1 17 C-1.0728152 11.02915328 -0.98670381 5.92022284 0 0 Z " fill="#2076BB" transform="translate(243,171)"/>
<path d="M0 0 C5.28 0 10.56 0 16 0 C16.020625 2.619375 16.04125 5.23875 16.0625 7.9375 C16.071604 8.7637085 16.08070801 9.58991699 16.09008789 10.44116211 C16.09723945 12.29433759 16.0502852 14.14749308 16 16 C15 17 15 17 11.875 17.1328125 C10.59625 17.13023437 9.3175 17.12765625 8 17.125 C6.72125 17.12757813 5.4425 17.13015625 4.125 17.1328125 C1 17 1 17 0 16 C-0.07325436 13.3013095 -0.09222351 10.63497444 -0.0625 7.9375 C-0.041875 5.318125 -0.02125 2.69875 0 0 Z " fill="#1A72BA" transform="translate(223,145)"/>
<path d="M0 0 C5.28 0 10.56 0 16 0 C16.08160247 5.95697995 15.8520338 11.03576338 15 17 C10.05 17 5.1 17 0 17 C0 11.39 0 5.78 0 0 Z " fill="#1E76BD" transform="translate(244,145)"/>
<path d="M0 0 C0 0.99 0 1.98 0 3 C-2.26832949 4.66949051 -4.44961315 6.09424671 -6.875 7.5 C-7.55884766 7.9021875 -8.24269531 8.304375 -8.94726562 8.71875 C-19.54085479 14.77792424 -29.90957926 16.21894122 -42 16 C-42 15.34 -42 14.68 -42 14 C-42.66 13.67 -43.32 13.34 -44 13 C-43.030625 12.90203125 -42.06125 12.8040625 -41.0625 12.703125 C-26.96605225 11.17352556 -11.26260587 9.38550489 0 0 Z " fill="#86ACCC" transform="translate(233,327)"/>
<path d="M0 0 C0.66 0.33 1.32 0.66 2 1 C-3.23215577 8.02210379 -9.01355974 11.8823496 -17.625 13.8125 C-18.800625 13.9053125 -18.800625 13.9053125 -20 14 C-20 12.68 -20 11.36 -20 10 C-19.14277344 9.69707031 -18.28554687 9.39414062 -17.40234375 9.08203125 C-10.89152343 6.6964432 -5.38824891 4.385784 0 0 Z " fill="#D9E6EF" transform="translate(233,323)"/>
<path d="M0 0 C2.01147461 0.15429688 2.01147461 0.15429688 4.46484375 0.71875 C5.36058105 0.91984375 6.25631836 1.1209375 7.17919922 1.328125 C8.11006348 1.54984375 9.04092773 1.7715625 10 2 C10.88316895 2.20109375 11.76633789 2.4021875 12.67626953 2.609375 C15.31085224 3.21746807 17.93677736 3.85481126 20.5625 4.5 C21.46291016 4.71269531 22.36332031 4.92539063 23.29101562 5.14453125 C24.14501953 5.35464844 24.99902344 5.56476563 25.87890625 5.78125 C26.6479126 5.96751953 27.41691895 6.15378906 28.20922852 6.34570312 C30 7 30 7 31 9 C24.81077724 8.40263223 18.86997765 7.45164023 12.8125 6.0625 C12.04486328 5.89298828 11.27722656 5.72347656 10.48632812 5.54882812 C6.22926083 4.58943764 2.11839075 3.4647546 -2 2 C-1.34 1.34 -0.68 0.68 0 0 Z " fill="#EAF0F4" transform="translate(224,209)"/>
<path d="M0 0 C5.28 0 10.56 0 16 0 C16 0.66 16 1.32 16 2 C12.84493858 2.93619813 10.03413498 3.1057123 6.75 3.0625 C5.85796875 3.05347656 4.9659375 3.04445313 4.046875 3.03515625 C3.37140625 3.02355469 2.6959375 3.01195312 2 3 C2 2.34 2 1.68 2 1 C1.34 0.67 0.68 0.34 0 0 Z " fill="#76A1C0" transform="translate(189,340)"/>
<path d="M0 0 C0.66 0.33 1.32 0.66 2 1 C1.06725891 2.12894876 0.12859878 3.25300876 -0.8125 4.375 C-1.33457031 5.00148438 -1.85664063 5.62796875 -2.39453125 6.2734375 C-4 8 -4 8 -7 10 C-9.1875 9.625 -9.1875 9.625 -11 9 C-3.70159453 2.66514806 -3.70159453 2.66514806 0 0 Z " fill="#E3EDF3" transform="translate(233,323)"/>
<path d="M0 0 C0.65234375 1.765625 0.65234375 1.765625 1 4 C0.00390625 5.921875 0.00390625 5.921875 -1.4375 7.75 C-1.91058594 8.36359375 -2.38367188 8.9771875 -2.87109375 9.609375 C-3.24363281 10.06828125 -3.61617188 10.5271875 -4 11 C-4.66 9.68 -5.32 8.36 -6 7 C-5.071875 6.1028125 -5.071875 6.1028125 -4.125 5.1875 C-1.86323046 2.99188856 -1.86323046 2.99188856 0 0 Z " fill="#3F75A6" transform="translate(351,250)"/>
<path d="M0 0 C1.36511719 0.29197266 1.36511719 0.29197266 2.7578125 0.58984375 C3.45648438 0.74582031 4.15515625 0.90179688 4.875 1.0625 C4.215 1.7225 3.555 2.3825 2.875 3.0625 C-1.26330989 2.76153201 -3.64347024 2.38351984 -7.125 0.0625 C-4.4030754 -1.2984623 -2.9418043 -0.64116248 0 0 Z " fill="#E2EAF1" transform="translate(229.125,209.9375)"/>
<path d="M0 0 C4.77609498 1.64178265 8.79382904 4.26546702 13 7 C12.34 7.66 11.68 8.32 11 9 C9.16384919 7.69144447 7.33114211 6.37805538 5.5 5.0625 C4.4790625 4.33160156 3.458125 3.60070312 2.40625 2.84765625 C1.6121875 2.23792969 0.818125 1.62820312 0 1 C0 0.67 0 0.34 0 0 Z " fill="#CDCED2" transform="translate(300,193)"/>
<path d="M0 0 C3.63 2.31 7.26 4.62 11 7 C10.01 7.66 9.02 8.32 8 9 C6.66079162 7.88200014 5.32877444 6.75538103 4 5.625 C2.88625 4.68527344 2.88625 4.68527344 1.75 3.7265625 C1.1725 3.15679687 0.595 2.58703125 0 2 C0 1.34 0 0.68 0 0 Z " fill="#CFCFD3" transform="translate(281,188)"/>
<path d="M0 0 C0 3.86695678 -1.41909971 6.5088452 -3 10 C-3.66 9.01 -4.32 8.02 -5 7 C-3.70700306 4.11562221 -2.34058637 2.12780579 0 0 Z " fill="#5281A9" transform="translate(86,158)"/>
</svg>
